<?xml version="1.0" encoding="UTF-8" standalone="no"?>
<!DOCTYPE svg PUBLIC "-//W3C//DTD SVG 1.1//EN" "http://www.w3.org/Graphics/SVG/1.1/DTD/svg11.dtd">
<svg width="100%" height="100%" viewBox="0 0 925 267" version="1.1" xmlns="http://www.w3.org/2000/svg" xmlns:xlink="http://www.w3.org/1999/xlink" xml:space="preserve" xmlns:serif="http://www.serif.com/" style="fill-rule:evenodd;clip-rule:evenodd;stroke-linejoin:round;stroke-miterlimit:2;">
    <g transform="matrix(2.23902,0,0,2.23902,-86.7784,-426.254)">
        <path d="M146.956,304.966L136.743,304.966L136.743,218.779L122.065,218.779L91.932,251.524L56.164,210.662L56.164,195.034L91.932,235.531L117.264,208.54L146.956,208.54L146.956,304.966ZM66.381,259.129L56.164,247.722L56.164,304.944L66.381,304.944L66.381,259.129ZM127.819,231.265L119.992,231.265L92.03,264.545L39.391,202.861L39.391,203.423L39.074,202.861L39.074,217.954L38.757,217.954L39.074,218.32L39.074,304.944L49.29,304.944L49.29,230.315L92.052,280.414L117.603,250.013L117.603,304.944L127.819,304.944L127.819,231.265ZM339.313,270.196C338.771,270.196 338.25,270.113 337.75,269.946C337.261,269.769 336.881,269.54 336.604,269.259L336.917,268.654C337.177,268.92 337.526,269.134 337.959,269.3C338.401,269.467 338.854,269.55 339.313,269.55C339.964,269.55 340.448,269.436 340.771,269.196C341.104,268.946 341.271,268.634 341.271,268.259C341.271,267.967 341.177,267.738 341,267.571C340.834,267.394 340.615,267.253 340.354,267.154C340.104,267.061 339.75,266.956 339.292,266.842C338.735,266.706 338.292,266.571 337.959,266.446C337.636,266.321 337.36,266.128 337.125,265.863C336.901,265.602 336.792,265.248 336.792,264.8C336.792,264.425 336.886,264.092 337.084,263.8C337.276,263.498 337.573,263.253 337.979,263.071C338.381,262.894 338.881,262.8 339.479,262.8C339.896,262.8 340.297,262.858 340.688,262.967C341.089,263.081 341.438,263.238 341.729,263.446L341.459,264.05C341.167,263.858 340.844,263.712 340.5,263.613C340.151,263.503 339.813,263.446 339.479,263.446C338.839,263.446 338.354,263.571 338.021,263.821C337.698,264.071 337.542,264.394 337.542,264.779C337.542,265.061 337.631,265.29 337.813,265.467C337.99,265.649 338.214,265.79 338.479,265.884C338.74,265.967 339.104,266.066 339.563,266.175C340.089,266.316 340.511,266.446 340.834,266.571C341.167,266.696 341.443,266.894 341.667,267.154C341.901,267.42 342.021,267.774 342.021,268.217C342.021,268.581 341.922,268.915 341.729,269.217C341.532,269.524 341.229,269.769 340.813,269.946C340.407,270.113 339.907,270.196 339.313,270.196ZM298.725,270.196C298.183,270.196 297.663,270.113 297.163,269.946C296.673,269.769 296.293,269.54 296.017,269.259L296.329,268.654C296.59,268.92 296.939,269.134 297.371,269.3C297.814,269.467 298.267,269.55 298.725,269.55C299.376,269.55 299.861,269.436 300.183,269.196C300.517,268.946 300.683,268.634 300.683,268.259C300.683,267.967 300.59,267.738 300.413,267.571C300.246,267.394 300.027,267.253 299.767,267.154C299.517,267.061 299.163,266.956 298.704,266.842C298.147,266.706 297.704,266.571 297.371,266.446C297.048,266.321 296.772,266.128 296.538,265.863C296.314,265.602 296.204,265.248 296.204,264.8C296.204,264.425 296.298,264.092 296.496,263.8C296.689,263.498 296.986,263.253 297.392,263.071C297.793,262.894 298.293,262.8 298.892,262.8C299.308,262.8 299.709,262.858 300.1,262.967C300.501,263.081 300.85,263.238 301.142,263.446L300.871,264.05C300.579,263.858 300.256,263.712 299.913,263.613C299.564,263.503 299.225,263.446 298.892,263.446C298.251,263.446 297.767,263.571 297.433,263.821C297.111,264.071 296.954,264.394 296.954,264.779C296.954,265.061 297.043,265.29 297.225,265.467C297.402,265.649 297.626,265.79 297.892,265.884C298.152,265.967 298.517,266.066 298.975,266.175C299.501,266.316 299.923,266.446 300.246,266.571C300.579,266.696 300.855,266.894 301.079,267.154C301.314,267.42 301.433,267.774 301.433,268.217C301.433,268.581 301.334,268.915 301.142,269.217C300.944,269.524 300.642,269.769 300.225,269.946C299.819,270.113 299.319,270.196 298.725,270.196ZM268.81,270.196C268.086,270.196 267.425,270.04 266.831,269.717C266.247,269.399 265.789,268.962 265.456,268.404C265.133,267.837 264.977,267.196 264.977,266.488C264.977,265.795 265.133,265.17 265.456,264.613C265.789,264.045 266.247,263.602 266.831,263.279C267.425,262.962 268.086,262.8 268.81,262.8C269.518,262.8 270.164,262.962 270.747,263.279C271.331,263.602 271.789,264.045 272.122,264.613C272.456,265.17 272.622,265.795 272.622,266.488C272.622,267.196 272.456,267.837 272.122,268.404C271.789,268.962 271.331,269.399 270.747,269.717C270.164,270.04 269.518,270.196 268.81,270.196ZM206.356,270.196C205.632,270.196 204.981,270.04 204.398,269.717C203.814,269.399 203.356,268.962 203.023,268.404C202.7,267.837 202.543,267.196 202.543,266.488C202.543,265.795 202.7,265.17 203.023,264.613C203.356,264.045 203.814,263.602 204.398,263.279C204.981,262.962 205.632,262.8 206.356,262.8C206.898,262.8 207.398,262.894 207.856,263.071C208.314,263.253 208.7,263.519 209.023,263.863L208.523,264.342C207.95,263.774 207.236,263.488 206.377,263.488C205.804,263.488 205.283,263.623 204.814,263.884C204.34,264.149 203.965,264.509 203.689,264.967C203.424,265.415 203.293,265.92 203.293,266.488C203.293,267.061 203.424,267.571 203.689,268.029C203.965,268.488 204.34,268.852 204.814,269.113C205.283,269.378 205.804,269.509 206.377,269.509C207.252,269.509 207.965,269.217 208.523,268.634L209.023,269.134C208.7,269.483 208.314,269.748 207.856,269.925C207.398,270.108 206.898,270.196 206.356,270.196ZM400.947,270.196C400.406,270.196 399.885,270.113 399.385,269.946C398.895,269.769 398.515,269.54 398.239,269.259L398.552,268.654C398.812,268.92 399.161,269.134 399.593,269.3C400.036,269.467 400.489,269.55 400.947,269.55C401.598,269.55 402.083,269.436 402.406,269.196C402.739,268.946 402.906,268.634 402.906,268.259C402.906,267.967 402.812,267.738 402.635,267.571C402.468,267.394 402.249,267.253 401.989,267.154C401.739,267.061 401.385,266.956 400.927,266.842C400.369,266.706 399.927,266.571 399.593,266.446C399.27,266.321 398.994,266.128 398.76,265.863C398.536,265.602 398.427,265.248 398.427,264.8C398.427,264.425 398.52,264.092 398.718,263.8C398.911,263.498 399.208,263.253 399.614,263.071C400.015,262.894 400.515,262.8 401.114,262.8C401.531,262.8 401.932,262.858 402.322,262.967C402.723,263.081 403.072,263.238 403.364,263.446L403.093,264.05C402.802,263.858 402.479,263.712 402.135,263.613C401.786,263.503 401.447,263.446 401.114,263.446C400.473,263.446 399.989,263.571 399.656,263.821C399.333,264.071 399.177,264.394 399.177,264.779C399.177,265.061 399.265,265.29 399.447,265.467C399.624,265.649 399.848,265.79 400.114,265.884C400.374,265.967 400.739,266.066 401.197,266.175C401.723,266.316 402.145,266.446 402.468,266.571C402.802,266.696 403.078,266.894 403.302,267.154C403.536,267.42 403.656,267.774 403.656,268.217C403.656,268.581 403.557,268.915 403.364,269.217C403.166,269.524 402.864,269.769 402.447,269.946C402.041,270.113 401.541,270.196 400.947,270.196ZM390.778,270.196C390.054,270.196 389.393,270.04 388.799,269.717C388.216,269.399 387.757,268.962 387.424,268.404C387.101,267.837 386.945,267.196 386.945,266.488C386.945,265.795 387.101,265.17 387.424,264.613C387.757,264.045 388.216,263.602 388.799,263.279C389.393,262.962 390.054,262.8 390.778,262.8C391.487,262.8 392.132,262.962 392.716,263.279C393.299,263.602 393.757,264.045 394.091,264.613C394.424,265.17 394.591,265.795 394.591,266.488C394.591,267.196 394.424,267.837 394.091,268.404C393.757,268.962 393.299,269.399 392.716,269.717C392.132,270.04 391.487,270.196 390.778,270.196ZM369.506,270.196C368.558,270.196 367.824,269.925 367.298,269.384C366.767,268.842 366.506,268.061 366.506,267.029L366.506,262.863L367.277,262.863L367.277,266.988C367.277,267.837 367.464,268.467 367.839,268.884C368.225,269.3 368.782,269.509 369.506,269.509C370.225,269.509 370.777,269.3 371.152,268.884C371.537,268.467 371.735,267.837 371.735,266.988L371.735,262.863L372.485,262.863L372.485,267.029C372.485,268.061 372.22,268.842 371.694,269.384C371.162,269.925 370.433,270.196 369.506,270.196ZM216.333,270.196C215.609,270.196 214.947,270.04 214.353,269.717C213.77,269.399 213.312,268.962 212.978,268.404C212.655,267.837 212.499,267.196 212.499,266.488C212.499,265.795 212.655,265.17 212.978,264.613C213.312,264.045 213.77,263.602 214.353,263.279C214.947,262.962 215.609,262.8 216.333,262.8C217.041,262.8 217.687,262.962 218.27,263.279C218.853,263.602 219.312,264.045 219.645,264.613C219.978,265.17 220.145,265.795 220.145,266.488C220.145,267.196 219.978,267.837 219.645,268.404C219.312,268.962 218.853,269.399 218.27,269.717C217.687,270.04 217.041,270.196 216.333,270.196ZM361.022,266.488L361.751,266.488L361.751,269.279C361.418,269.571 361.011,269.8 360.543,269.967C360.084,270.123 359.595,270.196 359.084,270.196C358.36,270.196 357.709,270.04 357.126,269.717C356.543,269.399 356.084,268.962 355.751,268.404C355.418,267.837 355.251,267.196 355.251,266.488C355.251,265.795 355.418,265.17 355.751,264.613C356.084,264.045 356.543,263.602 357.126,263.279C357.709,262.962 358.365,262.8 359.105,262.8C359.647,262.8 360.147,262.894 360.605,263.071C361.074,263.238 361.47,263.498 361.793,263.842L361.313,264.342C360.74,263.774 360.011,263.488 359.126,263.488C358.543,263.488 358.006,263.623 357.522,263.884C357.048,264.134 356.673,264.488 356.397,264.946C356.131,265.404 356.001,265.92 356.001,266.488C356.001,267.061 356.131,267.571 356.397,268.029C356.673,268.488 357.048,268.852 357.522,269.113C357.99,269.378 358.527,269.509 359.126,269.509C359.86,269.509 360.49,269.321 361.022,268.946L361.022,266.488ZM229.46,270.134L227.814,267.8C227.616,267.816 227.424,267.821 227.231,267.821L225.272,267.821L225.272,270.134L224.502,270.134L224.502,262.863L227.231,262.863C228.147,262.863 228.866,263.087 229.397,263.529C229.924,263.977 230.189,264.581 230.189,265.342C230.189,265.915 230.043,266.399 229.752,266.8C229.47,267.191 229.064,267.467 228.522,267.634L230.314,270.134L229.46,270.134ZM254.401,262.863L257.359,262.863C258.12,262.863 258.797,263.019 259.38,263.321C259.974,263.628 260.432,264.061 260.755,264.613C261.088,265.154 261.255,265.779 261.255,266.488C261.255,267.196 261.088,267.831 260.755,268.384C260.432,268.941 259.974,269.373 259.38,269.675C258.797,269.983 258.12,270.134 257.359,270.134L254.401,270.134L254.401,262.863ZM239.613,270.134L237.967,267.8C237.769,267.816 237.577,267.821 237.384,267.821L235.426,267.821L235.426,270.134L234.655,270.134L234.655,262.863L237.384,262.863C238.301,262.863 239.019,263.087 239.551,263.529C240.077,263.977 240.342,264.581 240.342,265.342C240.342,265.915 240.196,266.399 239.905,266.8C239.624,267.191 239.217,267.467 238.676,267.634L240.467,270.134L239.613,270.134ZM292.278,269.467L292.278,270.134L287.132,270.134L287.132,262.863L292.111,262.863L292.111,263.529L287.903,263.529L287.903,266.113L291.653,266.113L291.653,266.759L287.903,266.759L287.903,269.467L292.278,269.467ZM281.937,270.134L280.292,267.8C280.094,267.816 279.901,267.821 279.708,267.821L277.75,267.821L277.75,270.134L276.979,270.134L276.979,262.863L279.708,262.863C280.625,262.863 281.344,263.087 281.875,263.529C282.401,263.977 282.667,264.581 282.667,265.342C282.667,265.915 282.521,266.399 282.229,266.8C281.948,267.191 281.542,267.467 281,267.634L282.792,270.134L281.937,270.134ZM351.491,269.467L351.491,270.134L346.345,270.134L346.345,262.863L351.325,262.863L351.325,263.529L347.116,263.529L347.116,266.113L350.866,266.113L350.866,266.759L347.116,266.759L347.116,269.467L351.491,269.467ZM311.128,262.863L314.086,262.863C314.847,262.863 315.524,263.019 316.107,263.321C316.701,263.628 317.159,264.061 317.482,264.613C317.815,265.154 317.982,265.779 317.982,266.488C317.982,267.196 317.815,267.831 317.482,268.384C317.159,268.941 316.701,269.373 316.107,269.675C315.524,269.983 314.847,270.134 314.086,270.134L311.128,270.134L311.128,262.863ZM382.396,270.134L380.75,267.8C380.552,267.816 380.359,267.821 380.167,267.821L378.208,267.821L378.208,270.134L377.438,270.134L377.438,262.863L380.167,262.863C381.083,262.863 381.802,263.087 382.333,263.529C382.859,263.977 383.125,264.581 383.125,265.342C383.125,265.915 382.979,266.399 382.688,266.8C382.406,267.191 382,267.467 381.458,267.634L383.25,270.134L382.396,270.134ZM249.954,269.467L249.954,270.134L244.808,270.134L244.808,262.863L249.787,262.863L249.787,263.529L245.579,263.529L245.579,266.113L249.329,266.113L249.329,266.759L245.579,266.759L245.579,269.467L249.954,269.467ZM327.496,269.467L327.496,270.134L322.35,270.134L322.35,262.863L327.329,262.863L327.329,263.529L323.121,263.529L323.121,266.113L326.871,266.113L326.871,266.759L323.121,266.759L323.121,269.467L327.496,269.467ZM390.778,269.509C391.346,269.509 391.862,269.384 392.32,269.134C392.789,268.873 393.158,268.509 393.424,268.05C393.684,267.581 393.82,267.061 393.82,266.488C393.82,265.92 393.684,265.404 393.424,264.946C393.158,264.488 392.789,264.134 392.32,263.884C391.862,263.623 391.346,263.488 390.778,263.488C390.195,263.488 389.664,263.623 389.195,263.884C388.737,264.134 388.367,264.488 388.091,264.946C387.825,265.404 387.695,265.92 387.695,266.488C387.695,267.061 387.825,267.581 388.091,268.05C388.367,268.509 388.737,268.873 389.195,269.134C389.664,269.384 390.195,269.509 390.778,269.509ZM268.81,269.509C269.378,269.509 269.893,269.384 270.352,269.134C270.82,268.873 271.19,268.509 271.456,268.05C271.716,267.581 271.852,267.061 271.852,266.488C271.852,265.92 271.716,265.404 271.456,264.946C271.19,264.488 270.82,264.134 270.352,263.884C269.893,263.623 269.378,263.488 268.81,263.488C268.227,263.488 267.695,263.623 267.227,263.884C266.768,264.134 266.399,264.488 266.122,264.946C265.857,265.404 265.727,265.92 265.727,266.488C265.727,267.061 265.857,267.581 266.122,268.05C266.399,268.509 266.768,268.873 267.227,269.134C267.695,269.384 268.227,269.509 268.81,269.509ZM216.333,269.509C216.9,269.509 217.416,269.384 217.874,269.134C218.343,268.873 218.713,268.509 218.978,268.05C219.239,267.581 219.374,267.061 219.374,266.488C219.374,265.92 219.239,265.404 218.978,264.946C218.713,264.488 218.343,264.134 217.874,263.884C217.416,263.623 216.9,263.488 216.333,263.488C215.749,263.488 215.218,263.623 214.749,263.884C214.291,264.134 213.921,264.488 213.645,264.946C213.379,265.404 213.249,265.92 213.249,266.488C213.249,267.061 213.379,267.581 213.645,268.05C213.921,268.509 214.291,268.873 214.749,269.134C215.218,269.384 215.749,269.509 216.333,269.509ZM314.045,269.467C314.68,269.467 315.237,269.342 315.711,269.092C316.196,268.842 316.571,268.498 316.836,268.05C317.097,267.592 317.232,267.071 317.232,266.488C317.232,265.904 317.097,265.394 316.836,264.946C316.571,264.503 316.196,264.154 315.711,263.904C315.237,263.654 314.68,263.529 314.045,263.529L311.899,263.529L311.899,269.467L314.045,269.467ZM257.317,269.467C257.953,269.467 258.51,269.342 258.984,269.092C259.468,268.842 259.843,268.498 260.109,268.05C260.37,267.592 260.505,267.071 260.505,266.488C260.505,265.904 260.37,265.394 260.109,264.946C259.843,264.503 259.468,264.154 258.984,263.904C258.51,263.654 257.953,263.529 257.317,263.529L255.172,263.529L255.172,269.467L257.317,269.467ZM237.363,267.175C238.082,267.175 238.634,267.019 239.009,266.696C239.384,266.378 239.571,265.925 239.571,265.342C239.571,264.759 239.384,264.316 239.009,264.009C238.634,263.691 238.082,263.529 237.363,263.529L235.426,263.529L235.426,267.175L237.363,267.175ZM279.687,267.175C280.406,267.175 280.958,267.019 281.333,266.696C281.708,266.378 281.896,265.925 281.896,265.342C281.896,264.759 281.708,264.316 281.333,264.009C280.958,263.691 280.406,263.529 279.687,263.529L277.75,263.529L277.75,267.175L279.687,267.175ZM227.21,267.175C227.929,267.175 228.481,267.019 228.856,266.696C229.231,266.378 229.418,265.925 229.418,265.342C229.418,264.759 229.231,264.316 228.856,264.009C228.481,263.691 227.929,263.529 227.21,263.529L225.272,263.529L225.272,267.175L227.21,267.175ZM380.146,267.175C380.865,267.175 381.417,267.019 381.792,266.696C382.167,266.378 382.354,265.925 382.354,265.342C382.354,264.759 382.167,264.316 381.792,264.009C381.417,263.691 380.865,263.529 380.146,263.529L378.208,263.529L378.208,267.175L380.146,267.175ZM163.135,253.706L451.885,253.706L451.885,252.706L163.135,252.706L163.135,253.706ZM345.801,243.679L344.906,242.804L344.156,242.075C343.182,243.007 342.124,243.471 340.989,243.471C340.374,243.471 339.822,243.346 339.322,243.096C338.822,242.835 338.426,242.481 338.135,242.033C337.843,241.59 337.697,241.085 337.697,240.512C337.697,239.846 337.895,239.294 338.301,238.846C338.702,238.403 339.26,237.991 339.968,237.616C339.619,237.148 339.364,236.715 339.197,236.325C339.041,235.939 338.968,235.554 338.968,235.179C338.968,234.486 339.218,233.919 339.718,233.471C340.218,233.028 340.874,232.804 341.697,232.804C342.473,232.804 343.103,233.012 343.593,233.429C344.093,233.835 344.343,234.361 344.343,235.012C344.343,235.471 344.223,235.877 343.989,236.221C343.765,236.554 343.473,236.846 343.114,237.096C342.765,237.346 342.327,237.611 341.801,237.887C342.301,238.46 343.031,239.215 343.989,240.158C344.348,239.616 344.666,238.986 344.947,238.262L346.072,239.116C345.739,239.908 345.369,240.575 344.968,241.116L346.676,242.762L345.801,243.679ZM265.7,232.762C266.726,232.762 267.664,233.002 268.513,233.471C269.357,233.945 270.023,234.59 270.513,235.408C271.013,236.231 271.263,237.132 271.263,238.116C271.263,239.116 271.013,240.028 270.513,240.846C270.023,241.669 269.357,242.32 268.513,242.804C267.664,243.278 266.726,243.512 265.7,243.512C264.659,243.512 263.711,243.278 262.867,242.804C262.018,242.32 261.346,241.669 260.846,240.846C260.357,240.028 260.117,239.116 260.117,238.116C260.117,237.132 260.357,236.231 260.846,235.408C261.346,234.59 262.018,233.945 262.867,233.471C263.711,233.002 264.659,232.762 265.7,232.762ZM436.032,232.762C437.058,232.762 437.996,233.002 438.845,233.471C439.689,233.945 440.355,234.59 440.845,235.408C441.345,236.231 441.595,237.132 441.595,238.116C441.595,239.116 441.345,240.028 440.845,240.846C440.355,241.669 439.689,242.32 438.845,242.804C437.996,243.278 437.058,243.512 436.032,243.512C434.991,243.512 434.043,243.278 433.199,242.804C432.35,242.32 431.678,241.669 431.178,240.846C430.689,240.028 430.449,239.116 430.449,238.116C430.449,237.132 430.689,236.231 431.178,235.408C431.678,234.59 432.35,233.945 433.199,233.471C434.043,233.002 434.991,232.762 436.032,232.762ZM397.308,235.7C396.933,235.283 396.48,234.96 395.954,234.721C395.438,234.486 394.917,234.366 394.391,234.366C393.693,234.366 393.058,234.533 392.475,234.866C391.902,235.189 391.454,235.637 391.121,236.221C390.798,236.794 390.641,237.424 390.641,238.116C390.641,238.799 390.808,239.424 391.141,239.991C391.475,240.564 391.923,241.023 392.496,241.366C393.063,241.7 393.693,241.866 394.391,241.866C394.902,241.866 395.417,241.757 395.933,241.533C396.443,241.299 396.902,240.986 397.308,240.596L398.371,241.762C397.829,242.304 397.193,242.736 396.475,243.054C395.751,243.361 395.027,243.512 394.308,243.512C393.292,243.512 392.371,243.278 391.537,242.804C390.704,242.32 390.042,241.669 389.558,240.846C389.068,240.028 388.829,239.116 388.829,238.116C388.829,237.132 389.068,236.231 389.558,235.408C390.042,234.59 390.709,233.945 391.558,233.471C392.402,233.002 393.334,232.762 394.35,232.762C395.1,232.762 395.818,232.919 396.516,233.221C397.225,233.512 397.834,233.908 398.35,234.408L397.308,235.7ZM324.544,232.762C325.57,232.762 326.507,233.002 327.356,233.471C328.2,233.945 328.867,234.59 329.356,235.408C329.856,236.231 330.106,237.132 330.106,238.116C330.106,239.116 329.856,240.028 329.356,240.846C328.867,241.669 328.2,242.32 327.356,242.804C326.507,243.278 325.57,243.512 324.544,243.512C323.502,243.512 322.554,243.278 321.71,242.804C320.861,242.32 320.19,241.669 319.69,240.846C319.2,240.028 318.96,239.116 318.96,238.116C318.96,237.132 319.2,236.231 319.69,235.408C320.19,234.59 320.861,233.945 321.71,233.471C322.554,233.002 323.502,232.762 324.544,232.762ZM381.595,232.762C382.621,232.762 383.558,233.002 384.407,233.471C385.251,233.945 385.918,234.59 386.407,235.408C386.907,236.231 387.157,237.132 387.157,238.116C387.157,239.116 386.907,240.028 386.407,240.846C385.918,241.669 385.251,242.32 384.407,242.804C383.558,243.278 382.621,243.512 381.595,243.512C380.553,243.512 379.605,243.278 378.761,242.804C377.912,242.32 377.241,241.669 376.741,240.846C376.251,240.028 376.011,239.116 376.011,238.116C376.011,237.132 376.251,236.231 376.741,235.408C377.241,234.59 377.912,233.945 378.761,233.471C379.605,233.002 380.553,232.762 381.595,232.762ZM223.031,232.762C224.057,232.762 224.995,233.002 225.844,233.471C226.687,233.945 227.354,234.59 227.844,235.408C228.344,236.231 228.594,237.132 228.594,238.116C228.594,239.116 228.344,240.028 227.844,240.846C227.354,241.669 226.687,242.32 225.844,242.804C224.995,243.278 224.057,243.512 223.031,243.512C221.989,243.512 221.042,243.278 220.198,242.804C219.349,242.32 218.677,241.669 218.177,240.846C217.687,240.028 217.448,239.116 217.448,238.116C217.448,237.132 217.687,236.231 218.177,235.408C218.677,234.59 219.349,233.945 220.198,233.471C221.042,233.002 221.989,232.762 223.031,232.762ZM450.957,235.387C450.415,235.054 449.874,234.814 449.332,234.658C448.79,234.491 448.301,234.408 447.874,234.408C447.358,234.408 446.941,234.512 446.624,234.721C446.316,234.919 446.165,235.189 446.165,235.533C446.165,235.856 446.259,236.127 446.457,236.346C446.665,236.554 446.915,236.721 447.207,236.846C447.509,236.96 447.936,237.096 448.478,237.262C449.186,237.486 449.759,237.7 450.207,237.908C450.65,238.116 451.03,238.424 451.353,238.825C451.671,239.231 451.832,239.757 451.832,240.408C451.832,241.033 451.655,241.585 451.311,242.054C450.978,242.512 450.509,242.866 449.915,243.116C449.316,243.366 448.634,243.491 447.874,243.491C447.051,243.491 446.27,243.346 445.52,243.054C444.77,242.752 444.124,242.335 443.582,241.804L444.332,240.283C444.874,240.773 445.457,241.153 446.082,241.429C446.717,241.71 447.322,241.846 447.895,241.846C448.504,241.846 448.983,241.731 449.332,241.491C449.676,241.257 449.853,240.929 449.853,240.512C449.853,240.195 449.749,239.929 449.54,239.721C449.342,239.502 449.087,239.325 448.77,239.2C448.462,239.075 448.046,238.939 447.52,238.783C446.796,238.575 446.217,238.377 445.79,238.179C445.358,237.971 444.983,237.669 444.665,237.262C444.342,236.861 444.186,236.34 444.186,235.7C444.186,235.106 444.342,234.585 444.665,234.137C444.983,233.695 445.436,233.356 446.02,233.116C446.603,232.866 447.27,232.741 448.02,232.741C448.671,232.741 449.316,232.846 449.957,233.054C450.608,233.252 451.186,233.507 451.686,233.825L450.957,235.387ZM372.862,235.387C372.321,235.054 371.779,234.814 371.237,234.658C370.696,234.491 370.206,234.408 369.779,234.408C369.263,234.408 368.847,234.512 368.529,234.721C368.222,234.919 368.071,235.189 368.071,235.533C368.071,235.856 368.164,236.127 368.362,236.346C368.571,236.554 368.821,236.721 369.112,236.846C369.414,236.96 369.841,237.096 370.383,237.262C371.091,237.486 371.664,237.7 372.112,237.908C372.555,238.116 372.935,238.424 373.258,238.825C373.576,239.231 373.737,239.757 373.737,240.408C373.737,241.033 373.56,241.585 373.216,242.054C372.883,242.512 372.414,242.866 371.821,243.116C371.222,243.366 370.539,243.491 369.779,243.491C368.956,243.491 368.175,243.346 367.425,243.054C366.675,242.752 366.029,242.335 365.487,241.804L366.237,240.283C366.779,240.773 367.362,241.153 367.987,241.429C368.623,241.71 369.227,241.846 369.8,241.846C370.409,241.846 370.888,241.731 371.237,241.491C371.581,241.257 371.758,240.929 371.758,240.512C371.758,240.195 371.654,239.929 371.446,239.721C371.248,239.502 370.992,239.325 370.675,239.2C370.367,239.075 369.951,238.939 369.425,238.783C368.701,238.575 368.123,238.377 367.696,238.179C367.263,237.971 366.888,237.669 366.571,237.262C366.248,236.861 366.091,236.34 366.091,235.7C366.091,235.106 366.248,234.585 366.571,234.137C366.888,233.695 367.341,233.356 367.925,233.116C368.508,232.866 369.175,232.741 369.925,232.741C370.576,232.741 371.222,232.846 371.862,233.054C372.513,233.252 373.091,233.507 373.591,233.825L372.862,235.387ZM203.138,243.387L203.138,232.887L205.2,232.887L208.825,239.908L212.429,232.887L214.492,232.887L214.492,243.387L212.846,243.387L212.825,235.512L209.388,242.283L208.263,242.283L204.784,235.512L204.784,243.387L203.138,243.387ZM188.733,243.387L186.838,243.387L185.838,241.012L180.546,241.012L179.525,243.387L177.692,243.387L182.317,232.887L184.129,232.887L188.733,243.387ZM163.861,243.387L163.861,232.887L165.923,232.887L169.548,239.908L173.153,232.887L175.215,232.887L175.215,243.387L173.569,243.387L173.548,235.512L170.111,242.283L168.986,242.283L165.507,235.512L165.507,243.387L163.861,243.387ZM285.947,234.471L285.947,232.887L294.363,232.887L294.363,234.471L291.051,234.471L291.051,243.387L289.28,243.387L289.28,234.471L285.947,234.471ZM401.248,243.387L401.248,232.887L403.019,232.887L403.019,243.387L401.248,243.387ZM416.56,243.387L414.665,243.387L413.665,241.012L408.373,241.012L407.352,243.387L405.519,243.387L410.144,232.887L411.956,232.887L416.56,243.387ZM231.56,243.387L231.56,232.887L233.331,232.887L233.331,241.783L237.872,241.783L237.872,243.387L231.56,243.387ZM199.871,243.387L197.871,243.387L195.954,240.2C195.855,240.215 195.694,240.221 195.475,240.221L192.975,240.221L192.975,243.387L191.204,243.387L191.204,232.887L195.475,232.887C196.808,232.887 197.84,233.2 198.579,233.825C199.329,234.45 199.704,235.335 199.704,236.471C199.704,237.32 199.517,238.033 199.142,238.616C198.767,239.189 198.225,239.611 197.517,239.887L199.871,243.387ZM296.972,243.387L296.972,232.887L304.472,232.887L304.472,234.471L298.743,234.471L298.743,237.325L303.868,237.325L303.868,238.908L298.743,238.908L298.743,241.804L304.66,241.804L304.66,243.387L296.972,243.387ZM281.604,240.471L281.604,232.887L283.333,232.887L283.333,243.387L281.604,243.387L276,235.825L276,243.387L274.229,243.387L274.229,232.887L275.979,232.887L281.604,240.471ZM245.807,243.387L245.807,232.887L247.869,232.887L251.494,239.908L255.099,232.887L257.161,232.887L257.161,243.387L255.515,243.387L255.494,235.512L252.057,242.283L250.932,242.283L247.453,235.512L247.453,243.387L245.807,243.387ZM364.086,243.387L362.19,243.387L361.19,241.012L355.898,241.012L354.877,243.387L353.044,243.387L357.669,232.887L359.481,232.887L364.086,243.387ZM316.569,243.387L314.569,243.387L312.652,240.2C312.553,240.215 312.391,240.221 312.173,240.221L309.673,240.221L309.673,243.387L307.902,243.387L307.902,232.887L312.173,232.887C313.506,232.887 314.537,233.2 315.277,233.825C316.027,234.45 316.402,235.335 316.402,236.471C316.402,237.32 316.214,238.033 315.839,238.616C315.464,239.189 314.923,239.611 314.214,239.887L316.569,243.387ZM423.344,232.887C424.385,232.887 425.312,233.116 426.135,233.575C426.969,234.023 427.614,234.648 428.073,235.45C428.542,236.241 428.781,237.137 428.781,238.137C428.781,239.137 428.542,240.033 428.073,240.825C427.599,241.616 426.948,242.241 426.114,242.7C425.281,243.158 424.344,243.387 423.302,243.387L419.031,243.387L419.031,232.887L423.344,232.887ZM341.051,242.158C341.801,242.158 342.52,241.82 343.218,241.137C342.02,239.945 341.176,239.064 340.676,238.491C340.176,238.773 339.786,239.054 339.51,239.346C339.244,239.637 339.114,239.986 339.114,240.387C339.114,240.903 339.301,241.325 339.676,241.658C340.051,241.991 340.51,242.158 341.051,242.158ZM265.7,234.366C265.018,234.366 264.388,234.544 263.805,234.887C263.232,235.221 262.773,235.674 262.43,236.241C262.096,236.814 261.93,237.439 261.93,238.116C261.93,238.814 262.101,239.45 262.45,240.033C262.794,240.606 263.252,241.064 263.825,241.408C264.393,241.741 265.018,241.908 265.7,241.908C266.377,241.908 267.002,241.741 267.575,241.408C268.143,241.064 268.596,240.606 268.93,240.033C269.273,239.45 269.45,238.814 269.45,238.116C269.45,237.439 269.273,236.814 268.93,236.241C268.596,235.674 268.143,235.221 267.575,234.887C267.002,234.544 266.377,234.366 265.7,234.366ZM324.544,234.366C323.861,234.366 323.231,234.544 322.648,234.887C322.075,235.221 321.617,235.674 321.273,236.241C320.94,236.814 320.773,237.439 320.773,238.116C320.773,238.814 320.945,239.45 321.294,240.033C321.637,240.606 322.096,241.064 322.669,241.408C323.236,241.741 323.861,241.908 324.544,241.908C325.221,241.908 325.846,241.741 326.419,241.408C326.986,241.064 327.44,240.606 327.773,240.033C328.117,239.45 328.294,238.814 328.294,238.116C328.294,237.439 328.117,236.814 327.773,236.241C327.44,235.674 326.986,235.221 326.419,234.887C325.846,234.544 325.221,234.366 324.544,234.366ZM436.032,234.366C435.35,234.366 434.72,234.544 434.137,234.887C433.564,235.221 433.105,235.674 432.762,236.241C432.428,236.814 432.262,237.439 432.262,238.116C432.262,238.814 432.433,239.45 432.782,240.033C433.126,240.606 433.584,241.064 434.157,241.408C434.725,241.741 435.35,241.908 436.032,241.908C436.709,241.908 437.334,241.741 437.907,241.408C438.475,241.064 438.928,240.606 439.262,240.033C439.605,239.45 439.782,238.814 439.782,238.116C439.782,237.439 439.605,236.814 439.262,236.241C438.928,235.674 438.475,235.221 437.907,234.887C437.334,234.544 436.709,234.366 436.032,234.366ZM223.031,234.366C222.349,234.366 221.719,234.544 221.135,234.887C220.562,235.221 220.104,235.674 219.76,236.241C219.427,236.814 219.26,237.439 219.26,238.116C219.26,238.814 219.432,239.45 219.781,240.033C220.125,240.606 220.583,241.064 221.156,241.408C221.724,241.741 222.349,241.908 223.031,241.908C223.708,241.908 224.333,241.741 224.906,241.408C225.474,241.064 225.927,240.606 226.26,240.033C226.604,239.45 226.781,238.814 226.781,238.116C226.781,237.439 226.604,236.814 226.26,236.241C225.927,235.674 225.474,235.221 224.906,234.887C224.333,234.544 223.708,234.366 223.031,234.366ZM381.595,234.366C380.912,234.366 380.282,234.544 379.699,234.887C379.126,235.221 378.668,235.674 378.324,236.241C377.991,236.814 377.824,237.439 377.824,238.116C377.824,238.814 377.996,239.45 378.345,240.033C378.689,240.606 379.147,241.064 379.72,241.408C380.287,241.741 380.912,241.908 381.595,241.908C382.272,241.908 382.897,241.741 383.47,241.408C384.037,241.064 384.491,240.606 384.824,240.033C385.168,239.45 385.345,238.814 385.345,238.116C385.345,237.439 385.168,236.814 384.824,236.241C384.491,235.674 384.037,235.221 383.47,234.887C382.897,234.544 382.272,234.366 381.595,234.366ZM423.385,241.804C424.052,241.804 424.656,241.653 425.198,241.346C425.75,241.028 426.187,240.59 426.51,240.033C426.828,239.481 426.989,238.856 426.989,238.158C426.989,237.45 426.823,236.82 426.489,236.262C426.167,235.71 425.724,235.273 425.156,234.95C424.599,234.632 423.979,234.471 423.302,234.471L420.802,234.471L420.802,241.804L423.385,241.804ZM183.171,234.783L181.192,239.45L185.15,239.45L183.171,234.783ZM358.523,234.783L356.544,239.45L360.502,239.45L358.523,234.783ZM410.998,234.783L409.019,239.45L412.977,239.45L410.998,234.783ZM192.975,238.637L195.475,238.637C196.293,238.637 196.918,238.465 197.35,238.116C197.793,237.757 198.017,237.221 198.017,236.512C198.017,235.835 197.793,235.325 197.35,234.991C196.918,234.648 196.293,234.471 195.475,234.471L192.975,234.471L192.975,238.637ZM309.673,238.637L312.173,238.637C312.99,238.637 313.615,238.465 314.048,238.116C314.49,237.757 314.714,237.221 314.714,236.512C314.714,235.835 314.49,235.325 314.048,234.991C313.615,234.648 312.99,234.471 312.173,234.471L309.673,234.471L309.673,238.637ZM340.322,235.158C340.322,235.7 340.577,236.325 341.093,237.033C341.702,236.715 342.166,236.408 342.489,236.116C342.807,235.814 342.968,235.45 342.968,235.033C342.968,234.689 342.848,234.408 342.614,234.2C342.39,233.991 342.083,233.887 341.697,233.887C341.291,233.887 340.958,234.012 340.697,234.262C340.447,234.502 340.322,234.799 340.322,235.158ZM182.317,231.866L183.817,229.804L185.588,230.554L183.754,232.033L182.317,231.866Z" style="fill:rgb(35,48,55);fill-rule:nonzero;"/>
    </g>
</svg>
