<?xml version="1.0" encoding="UTF-8" standalone="no"?>
<!DOCTYPE svg PUBLIC "-//W3C//DTD SVG 1.1//EN" "http://www.w3.org/Graphics/SVG/1.1/DTD/svg11.dtd">
<svg width="100%" height="100%" viewBox="0 0 96 96" version="1.1" xmlns="http://www.w3.org/2000/svg" xmlns:xlink="http://www.w3.org/1999/xlink" xml:space="preserve" xmlns:serif="http://www.serif.com/" style="fill-rule:evenodd;clip-rule:evenodd;stroke-linejoin:round;stroke-miterlimit:2;">
    <path d="M65.52,67.819L65.52,77.972C65.52,79.288 64.437,80.372 63.12,80.372C61.803,80.372 60.72,79.288 60.72,77.972L60.72,67.819C60.713,61.238 55.3,55.826 48.72,55.819L34.411,55.819C27.83,55.826 22.418,61.238 22.411,67.819L22.411,77.972C22.411,79.288 21.327,80.372 20.011,80.372C18.694,80.372 17.611,79.288 17.611,77.972L17.611,67.819C17.622,58.607 25.199,51.03 34.411,51.019L48.72,51.019C57.932,51.03 65.509,58.607 65.52,67.819ZM78.387,42.884C78.387,44.2 77.304,45.284 75.987,45.284L71.979,45.284L71.979,49.289C71.979,50.606 70.896,51.689 69.579,51.689C68.263,51.689 67.179,50.606 67.179,49.289L67.179,45.284L63.171,45.284C61.855,45.284 60.771,44.2 60.771,42.884C60.771,41.567 61.855,40.484 63.171,40.484L67.179,40.484L67.179,36.48C67.179,35.163 68.263,34.08 69.579,34.08C70.896,34.08 71.979,35.163 71.979,36.48L71.979,40.486L75.989,40.486C77.305,40.486 78.388,41.568 78.389,42.884L78.387,42.884ZM41.568,46.219C41.568,46.219 41.568,46.219 41.568,46.219C49.959,46.219 56.864,39.314 56.864,30.924C56.864,22.533 49.959,15.628 41.568,15.628C33.178,15.628 26.273,22.533 26.273,30.924C26.282,39.311 33.181,46.209 41.568,46.219ZM41.568,20.428C41.568,20.428 41.568,20.428 41.568,20.428C47.326,20.428 52.064,25.166 52.064,30.924C52.064,36.681 47.326,41.419 41.568,41.419C35.811,41.419 31.073,36.681 31.073,30.924C31.079,25.168 35.813,20.435 41.568,20.428Z" style="fill-rule:nonzero;"/>
</svg>
