<?xml version="1.0" encoding="UTF-8" standalone="no"?>
<!DOCTYPE svg PUBLIC "-//W3C//DTD SVG 1.1//EN" "http://www.w3.org/Graphics/SVG/1.1/DTD/svg11.dtd">
<svg width="100%" height="100%" viewBox="0 0 96 96" version="1.1" xmlns="http://www.w3.org/2000/svg" xmlns:xlink="http://www.w3.org/1999/xlink" xml:space="preserve" xmlns:serif="http://www.serif.com/" style="fill-rule:evenodd;clip-rule:evenodd;stroke-linejoin:round;stroke-miterlimit:2;">
    <path d="M68.016,15.984L27.984,15.984C21.404,15.992 15.992,21.404 15.984,27.984L15.984,68.016C15.992,74.596 21.404,80.008 27.984,80.016L68.016,80.016C74.596,80.008 80.008,74.596 80.016,68.016L80.016,27.984C80.008,21.404 74.596,15.992 68.016,15.984ZM68.016,75.216L27.984,75.216C24.036,75.211 20.789,71.964 20.784,68.016L20.784,36.566L75.216,36.566L75.216,68.016C75.211,71.964 71.964,75.211 68.016,75.216ZM33.408,61.344C33.545,61.628 33.611,61.941 33.6,62.256C33.606,62.571 33.541,62.883 33.408,63.168C33.305,63.467 33.123,63.733 32.88,63.936C32.678,64.18 32.412,64.363 32.112,64.464C31.828,64.602 31.515,64.668 31.2,64.656C30.885,64.662 30.573,64.597 30.288,64.464C29.988,64.362 29.723,64.179 29.52,63.936C29.276,63.735 29.093,63.468 28.992,63.168C28.859,62.883 28.794,62.571 28.8,62.256C28.789,61.941 28.855,61.628 28.992,61.344C29.103,61.035 29.284,60.756 29.52,60.528C30.214,59.875 31.23,59.686 32.112,60.048C32.4,60.149 32.663,60.313 32.88,60.528C33.114,60.757 33.295,61.036 33.408,61.344ZM44.112,60.528C44.541,61.001 44.781,61.617 44.784,62.256C44.767,62.878 44.528,63.474 44.112,63.936C43.884,64.172 43.605,64.353 43.296,64.464C43.012,64.602 42.699,64.668 42.384,64.656C42.069,64.662 41.757,64.597 41.472,64.464C41.172,64.362 40.907,64.179 40.704,63.936C40.474,63.721 40.294,63.459 40.176,63.168C40.065,62.876 40,62.568 39.984,62.256C40.007,61.612 40.263,60.998 40.704,60.528C40.922,60.314 41.184,60.151 41.472,60.048C42.056,59.809 42.712,59.809 43.296,60.048C43.599,60.149 43.877,60.312 44.112,60.528ZM55.296,60.576C55.743,61.022 56.001,61.624 56.016,62.256C55.997,62.568 55.933,62.875 55.824,63.168C55.437,64.046 54.576,64.627 53.616,64.656C53.301,64.667 52.988,64.601 52.704,64.464C52.39,64.363 52.109,64.181 51.888,63.936C51.474,63.472 51.236,62.877 51.216,62.256C51.213,61.63 51.454,61.027 51.888,60.576C52.109,60.331 52.39,60.149 52.704,60.048C53.288,59.809 53.944,59.809 54.528,60.048C54.822,60.161 55.085,60.342 55.296,60.576ZM32.88,47.856C33.34,48.293 33.601,48.901 33.601,49.536C33.601,50.171 33.34,50.779 32.88,51.216C32.678,51.46 32.412,51.643 32.112,51.744C31.828,51.882 31.515,51.948 31.2,51.936C30.885,51.942 30.573,51.877 30.288,51.744C29.988,51.642 29.723,51.459 29.52,51.216C29.276,51.015 29.093,50.748 28.992,50.448C28.855,50.164 28.789,49.851 28.8,49.536C28.792,48.9 29.054,48.289 29.52,47.856C30.193,47.167 31.223,46.958 32.112,47.328C32.412,47.429 32.678,47.612 32.88,47.856ZM44.592,48.624C44.727,48.909 44.793,49.221 44.784,49.536C44.767,50.158 44.528,50.754 44.112,51.216C43.871,51.436 43.596,51.615 43.296,51.744C43.012,51.882 42.699,51.948 42.384,51.936C42.069,51.942 41.757,51.877 41.472,51.744C41.181,51.625 40.92,51.445 40.704,51.216C40.474,51.001 40.294,50.739 40.176,50.448C40.065,50.156 40,49.848 39.984,49.536C39.996,49.223 40.061,48.915 40.176,48.624C40.294,48.333 40.474,48.071 40.704,47.856C40.907,47.613 41.172,47.43 41.472,47.328C42.056,47.089 42.712,47.089 43.296,47.328C43.605,47.439 43.884,47.62 44.112,47.856C44.325,48.075 44.489,48.337 44.592,48.624ZM55.824,48.624C56.081,49.205 56.081,49.867 55.824,50.448C55.437,51.326 54.576,51.907 53.616,51.936C53.301,51.947 52.988,51.881 52.704,51.744C52.39,51.643 52.109,51.461 51.888,51.216C51.673,50.999 51.509,50.736 51.408,50.448C51.151,49.867 51.151,49.205 51.408,48.624C51.509,48.336 51.673,48.073 51.888,47.856C52.58,47.166 53.624,46.958 54.528,47.328C54.822,47.441 55.085,47.622 55.296,47.856C55.524,48.072 55.704,48.334 55.824,48.624ZM67.008,48.624C67.145,48.908 67.211,49.221 67.2,49.536C67.206,49.851 67.141,50.163 67.008,50.448C66.905,50.747 66.723,51.013 66.48,51.216C66.042,51.675 65.434,51.935 64.8,51.935C64.166,51.935 63.558,51.675 63.12,51.216C62.876,51.015 62.693,50.748 62.592,50.448C62.459,50.163 62.394,49.851 62.4,49.536C62.389,49.221 62.455,48.908 62.592,48.624C62.703,48.315 62.884,48.036 63.12,47.808C63.813,47.153 64.83,46.965 65.712,47.328C66,47.429 66.263,47.593 66.48,47.808C66.714,48.037 66.895,48.316 67.008,48.624ZM27.984,20.784L68.016,20.784C71.964,20.789 75.211,24.036 75.216,27.984L75.216,31.766L20.784,31.766L20.784,27.984C20.789,24.036 24.036,20.789 27.984,20.784Z" style="fill-rule:nonzero;"/>
</svg>
