<?xml version="1.0" encoding="UTF-8" standalone="no"?>
<!DOCTYPE svg PUBLIC "-//W3C//DTD SVG 1.1//EN" "http://www.w3.org/Graphics/SVG/1.1/DTD/svg11.dtd">
<svg width="100%" height="100%" viewBox="0 0 96 96" version="1.1" xmlns="http://www.w3.org/2000/svg" xmlns:xlink="http://www.w3.org/1999/xlink" xml:space="preserve" xmlns:serif="http://www.serif.com/" style="fill-rule:evenodd;clip-rule:evenodd;stroke-linejoin:round;stroke-miterlimit:2;">
    <path d="M41.261,40.018C39.775,42.399 39.118,45.207 39.394,48C39.088,50.811 39.774,53.642 41.333,56.002L41.357,56.002C48.384,56.002 51.696,64.55 51.696,70.334C51.696,74.894 51.696,82.526 39.072,82.526C26.798,82.526 22.325,61.944 22.306,48.053L22.306,47.947C22.325,34.056 26.798,13.469 39.077,13.469C51.696,13.469 51.696,21.106 51.696,25.666C51.696,31.454 48.384,40.018 41.261,40.018ZM34.594,48C34.594,42.101 36.336,35.218 41.261,35.218C44.75,35.218 46.891,29.654 46.891,25.666C46.891,20.899 46.891,18.274 39.077,18.274C31.68,18.269 27.115,33.696 27.106,48C27.115,62.304 31.69,77.731 39.077,77.731C46.896,77.731 46.896,75.101 46.896,70.334C46.896,66.346 44.75,60.782 41.261,60.782C36.336,60.782 34.594,53.899 34.594,48ZM73.694,48C73.687,55.413 70.718,62.524 65.453,67.742C65.002,68.199 64.386,68.457 63.744,68.457C62.428,68.457 61.344,67.373 61.344,66.057C61.344,65.401 61.613,64.773 62.088,64.32C66.442,60.008 68.895,54.128 68.895,48C68.895,41.872 66.442,35.992 62.088,31.68C61.586,31.225 61.299,30.578 61.299,29.901C61.299,28.584 62.382,27.501 63.699,27.501C64.361,27.501 64.995,27.775 65.448,28.258C70.717,33.474 73.689,40.586 73.699,48L73.694,48ZM58.718,35.102C58.265,34.62 57.631,34.346 56.969,34.346C55.653,34.346 54.569,35.429 54.569,36.746C54.569,37.423 54.856,38.07 55.358,38.525C57.879,41.032 59.298,44.444 59.298,48C59.298,51.556 57.879,54.968 55.358,57.475C54.856,57.93 54.569,58.577 54.569,59.254C54.569,60.571 55.653,61.654 56.969,61.654C57.631,61.654 58.265,61.38 58.718,60.898C62.155,57.489 64.09,52.843 64.09,48.002C64.09,43.162 62.155,38.516 58.718,35.107L58.718,35.102Z" style="fill-rule:nonzero;"/>
</svg>
