<svg width="100%" height="100%" viewBox="0 0 25 25" version="1.1" xmlns="http://www.w3.org/2000/svg" xmlns:xlink="http://www.w3.org/1999/xlink" xml:space="preserve" xmlns:serif="http://www.serif.com/" style="fill-rule:evenodd;clip-rule:evenodd;stroke-linejoin:round;stroke-miterlimit:2;">
    <path d="M19.39,9.153L15.847,9.153L15.847,5.61C15.847,4.239 14.718,3.11 13.347,3.11L11.653,3.11C10.282,3.11 9.153,4.239 9.153,5.61L9.153,9.153L5.61,9.153C4.239,9.153 3.11,10.282 3.11,11.653L3.11,13.347C3.11,14.718 4.239,15.847 5.61,15.847L9.153,15.847L9.153,19.39C9.153,20.761 10.282,21.89 11.653,21.89L13.347,21.89C14.718,21.89 15.847,20.761 15.847,19.39L15.847,15.847L19.39,15.847C20.761,15.847 21.89,14.718 21.89,13.347L21.89,11.653C21.89,10.282 20.761,9.153 19.39,9.153Z" style="fill-rule:nonzero;"/>
</svg>
