<svg xmlns="http://www.w3.org/2000/svg" viewBox="0 0 25 25"><path d="M19.39,9.153H15.847V5.61a2.5,2.5,0,0,0-2.5-2.5H11.653a2.5,2.5,0,0,0-2.5,2.5V9.153H5.61a2.5,2.5,0,0,0-2.5,2.5v1.694a2.5,2.5,0,0,0,2.5,2.5H9.153V19.39a2.5,2.5,0,0,0,2.5,2.5h1.694a2.5,2.5,0,0,0,2.5-2.5V15.847H19.39a2.5,2.5,0,0,0,2.5-2.5V11.653A2.5,2.5,0,0,0,19.39,9.153Zm1.5,4.194a1.5,1.5,0,0,1-1.5,1.5H15.347a.5.5,0,0,0-.5.5V19.39a1.5,1.5,0,0,1-1.5,1.5H11.653a1.5,1.5,0,0,1-1.5-1.5V15.347a.5.5,0,0,0-.5-.5H5.61a1.5,1.5,0,0,1-1.5-1.5V11.653a1.5,1.5,0,0,1,1.5-1.5H9.653a.5.5,0,0,0,.5-.5V5.61a1.5,1.5,0,0,1,1.5-1.5h1.694a1.5,1.5,0,0,1,1.5,1.5V9.653a.5.5,0,0,0,.5.5H19.39a1.5,1.5,0,0,1,1.5,1.5Z"></path></svg>