<svg xmlns="http://www.w3.org/2000/svg" viewBox="0 0 25 25"><path d="M17.235,4A6.67,6.67,0,0,0,12.5,5.985,6.67,6.67,0,0,0,7.765,4C4.828,4,2.528,6.655,2.528,10.044c0,2.145.99,6.337,7.618,10.308a4.575,4.575,0,0,0,4.708,0c6.628-3.971,7.618-8.163,7.618-10.308C22.472,6.655,20.172,4,17.235,4ZM14.34,19.494a3.625,3.625,0,0,1-3.68,0c-6.2-3.718-7.132-7.516-7.132-9.45C3.528,7.169,5.35,5,7.765,5A5.637,5.637,0,0,1,12.1,7.037a.519.519,0,0,0,.8,0A5.637,5.637,0,0,1,17.235,5c2.415,0,4.237,2.169,4.237,5.044C21.472,11.978,20.545,15.776,14.34,19.494Z"></path></svg>