<?xml version="1.0" encoding="UTF-8" standalone="no"?>
<!DOCTYPE svg PUBLIC "-//W3C//DTD SVG 1.1//EN" "http://www.w3.org/Graphics/SVG/1.1/DTD/svg11.dtd">
<svg width="100%" height="100%" viewBox="0 0 96 96" version="1.1" xmlns="http://www.w3.org/2000/svg" xmlns:xlink="http://www.w3.org/1999/xlink" xml:space="preserve" xmlns:serif="http://www.serif.com/" style="fill-rule:evenodd;clip-rule:evenodd;stroke-linejoin:round;stroke-miterlimit:2;">
    <path d="M88.905,0.014C74.14,-0.028 19.682,0.042 7.095,0.014C3.178,0.014 0,3.095 0,6.889L0,89.126C0,92.922 3.178,96 7.095,96L88.905,96C92.824,96 96,92.922 96,89.125L96,6.889C96,3.095 92.824,0.014 88.905,0.014Z" style="fill:rgb(0,119,181);fill-rule:nonzero;"/>
    <path d="M51.489,80.342L51.489,56.212C51.349,51.778 53.999,47.639 59.333,47.453C64.53,47.453 66.61,51.416 66.61,57.225L66.61,80.341L80.973,80.341L80.973,55.564C80.973,42.291 73.888,36.114 64.436,36.114C56.687,36.114 53.284,40.445 51.393,43.394L51.489,37.129L37.126,37.129C37.313,41.183 37.125,80.342 37.125,80.342L51.489,80.342ZM29.174,61.603L29.174,37.128L14.808,37.128L14.808,80.341L29.175,80.341C29.172,75.804 29.18,66.076 29.174,61.603ZM21.994,31.23C27.002,31.23 30.121,27.911 30.121,23.765C30.079,13.764 13.948,13.875 13.961,23.764C13.95,27.942 17.155,31.281 21.994,31.23Z" style="fill:rgb(241,241,241);fill-rule:nonzero;"/>
</svg>
