<?xml version="1.0" encoding="UTF-8" standalone="no"?>
<!DOCTYPE svg PUBLIC "-//W3C//DTD SVG 1.1//EN" "http://www.w3.org/Graphics/SVG/1.1/DTD/svg11.dtd">
<svg width="100%" height="100%" viewBox="0 0 96 96" version="1.1" xmlns="http://www.w3.org/2000/svg" xmlns:xlink="http://www.w3.org/1999/xlink" xml:space="preserve" xmlns:serif="http://www.serif.com/" style="fill-rule:evenodd;clip-rule:evenodd;stroke-linejoin:round;stroke-miterlimit:2;">
    <path d="M71.846,20.381L24.154,20.381C17.571,20.381 12.154,25.798 12.154,32.381L12.154,63.619C12.154,70.202 17.571,75.619 24.154,75.619L71.846,75.619C78.429,75.619 83.846,70.202 83.846,63.619L83.846,32.381C83.846,25.798 78.429,20.381 71.846,20.381ZM71.846,70.819L24.154,70.819C20.204,70.819 16.954,67.569 16.954,63.619L16.954,39.043L44.419,54.792C46.634,56.062 49.366,56.062 51.581,54.792L79.046,39.043L79.046,63.619C79.046,67.569 75.796,70.819 71.846,70.819ZM24.154,25.181L71.846,25.181C75.796,25.181 79.046,28.431 79.046,32.381L79.046,33.509L49.19,50.63C48.449,51.059 47.532,51.059 46.79,50.63L16.954,33.509L16.954,32.381C16.954,28.431 20.204,25.181 24.154,25.181Z" style="fill-rule:nonzero;"/>
</svg>
