<?xml version="1.0" encoding="UTF-8" standalone="no"?>
<!DOCTYPE svg PUBLIC "-//W3C//DTD SVG 1.1//EN" "http://www.w3.org/Graphics/SVG/1.1/DTD/svg11.dtd">
<svg width="100%" height="100%" viewBox="0 0 96 96" version="1.1" xmlns="http://www.w3.org/2000/svg" xmlns:xlink="http://www.w3.org/1999/xlink" xml:space="preserve" xmlns:serif="http://www.serif.com/" style="fill-rule:evenodd;clip-rule:evenodd;stroke-linejoin:round;stroke-miterlimit:2;">
  <path d="M82.013,13.951C72.988,4.96 60.987,0.005 48.201,0C21.853,0 0.412,21.339 0.401,47.568C0.398,55.952 2.599,64.136 6.781,71.35L-0,96L25.339,89.385C32.32,93.176 40.181,95.173 48.18,95.176L48.201,95.176C74.544,95.176 95.989,73.834 96,47.606C96.004,34.895 91.037,22.942 82.013,13.951ZM48.201,87.142L48.185,87.142C41.055,87.138 34.063,85.233 27.964,81.63L26.513,80.773L11.476,84.698L15.491,70.108L14.545,68.612C10.568,62.317 8.468,55.041 8.471,47.571C8.48,25.77 26.302,8.035 48.216,8.035C58.828,8.039 68.802,12.157 76.303,19.63C83.804,27.103 87.932,37.037 87.929,47.603C87.92,69.404 70.098,87.142 48.201,87.142Z" style="fill:rgb(224,224,224);fill-rule:nonzero;"/>
  <path d="M2.194,93.265L8.666,69.741C4.673,62.856 2.574,55.045 2.576,47.046C2.587,22.016 23.049,1.652 48.191,1.652C60.393,1.658 71.846,6.385 80.457,14.966C89.07,23.546 93.81,34.952 93.805,47.081C93.795,72.014 73.49,92.319 48.487,92.477L48.193,92.477L48.172,92.477C40.538,92.475 33.037,90.567 26.375,86.953L2.194,93.265Z" style="fill:url(#linear-gradient);fill-rule:nonzero;"/>
  <path d="M36.389,27.373C35.505,25.416 34.574,25.376 33.732,25.342C33.044,25.313 32.256,25.315 31.47,25.315C30.683,25.315 29.404,25.609 28.322,26.785C27.239,27.961 24.189,30.804 24.189,36.587C24.189,42.37 28.42,47.958 29.01,48.743C29.6,49.527 37.178,61.773 49.178,66.484C59.151,70.399 61.18,69.62 63.345,69.424C65.51,69.228 70.33,66.582 71.314,63.837C72.298,61.093 72.298,58.741 72.003,58.249C71.708,57.759 70.92,57.465 69.74,56.878C68.559,56.29 62.755,53.446 61.672,53.054C60.59,52.662 59.803,52.467 59.016,53.643C58.228,54.819 55.967,57.465 55.278,58.249C54.59,59.035 53.901,59.133 52.72,58.545C51.539,57.955 47.737,56.715 43.226,52.711C39.716,49.596 37.347,45.749 36.658,44.572C35.969,43.397 36.584,42.76 37.176,42.174C37.706,41.648 38.357,40.802 38.947,40.116C39.537,39.429 39.733,38.94 40.127,38.156C40.521,37.371 40.324,36.685 40.029,36.097C39.733,35.509 37.439,29.697 36.389,27.373Z" style="fill:white;"/>
  <path d="M81.622,13.8C72.701,4.912 60.838,0.014 48.199,0.009C22.154,0.009 0.958,21.103 0.948,47.031C0.945,55.318 3.12,63.409 7.254,70.54L0.551,94.907L25.599,88.368C32.501,92.115 40.271,94.09 48.178,94.093L48.199,94.093C74.239,94.093 95.438,72.995 95.449,47.068C95.453,34.503 90.543,22.688 81.622,13.8ZM48.199,86.151L48.183,86.151C41.135,86.147 34.223,84.263 28.194,80.702L26.76,79.855L11.896,83.735L15.864,69.312L14.929,67.834C10.998,61.61 8.922,54.418 8.925,47.034C8.934,25.484 26.551,7.952 48.213,7.952C58.704,7.956 68.563,12.027 75.979,19.414C83.394,26.801 87.474,36.621 87.471,47.066C87.462,68.616 69.844,86.151 48.199,86.151Z" style="fill:white;fill-rule:nonzero;"/>
  <defs>
    <linearGradient id="linear-gradient" x1="0" y1="0" x2="1" y2="0" gradientUnits="userSpaceOnUse" gradientTransform="matrix(76.8057,-80.2649,80.2649,76.8057,2.19426,93.2649)"><stop offset="0" style="stop-color:rgb(32,177,56);stop-opacity:1"/><stop offset="1" style="stop-color:rgb(97,214,105);stop-opacity:1"/></linearGradient>
  </defs>
</svg>
